<mxfile host="app.diagrams.net" modified="2023-04-24T11:00:58.224Z" agent="Mozilla/5.0 (Windows NT 10.0; Win64; x64) AppleWebKit/537.36 (KHTML, like Gecko) Chrome/112.0.0.0 Safari/537.36" etag="jK1kBiCTz0fyZeGD-TCq" version="21.2.1" type="device">
  <diagram name="Page-1" id="03018318-947c-dd8e-b7a3-06fadd420f32">
    <mxGraphModel dx="2100" dy="1116" grid="1" gridSize="10" guides="1" tooltips="1" connect="1" arrows="1" fold="1" page="1" pageScale="1" pageWidth="1100" pageHeight="850" background="none" math="0" shadow="0">
      <root>
        <mxCell id="0" />
        <mxCell id="1" parent="0" />
        <mxCell id="677b7b8949515195-1" value="" style="whiteSpace=wrap;html=1;rounded=0;shadow=0;labelBackgroundColor=none;strokeColor=#000000;strokeWidth=1;fillColor=none;fontFamily=Verdana;fontSize=12;fontColor=#000000;align=center;comic=1;" parent="1" vertex="1">
          <mxGeometry x="30" y="10" width="1060" height="1140" as="geometry" />
        </mxCell>
        <mxCell id="677b7b8949515195-3" value="Search" style="strokeWidth=1;shadow=0;dashed=0;align=center;html=1;shape=mxgraph.mockup.forms.searchBox;strokeColor=#999999;mainText=;strokeColor2=#008cff;fontColor=#666666;fontSize=17;align=left;spacingLeft=3;rounded=0;labelBackgroundColor=none;comic=1;" parent="1" vertex="1">
          <mxGeometry x="270" y="70" width="380" height="30" as="geometry" />
        </mxCell>
        <mxCell id="677b7b8949515195-7" value="Košík" style="text;html=1;points=[];align=left;verticalAlign=top;spacingTop=-4;fontSize=14;fontFamily=Verdana" parent="1" vertex="1">
          <mxGeometry x="790" y="70" width="60" height="20" as="geometry" />
        </mxCell>
        <mxCell id="677b7b8949515195-8" value="" style="whiteSpace=wrap;html=1;rounded=0;shadow=0;labelBackgroundColor=none;strokeWidth=1;fillColor=none;fontFamily=Verdana;fontSize=12;align=center;comic=1;" parent="1" vertex="1">
          <mxGeometry x="30" y="150" width="190" height="660" as="geometry" />
        </mxCell>
        <mxCell id="677b7b8949515195-9" value="" style="line;strokeWidth=1;html=1;rounded=0;shadow=0;labelBackgroundColor=none;fillColor=none;fontFamily=Verdana;fontSize=14;fontColor=#000000;align=center;comic=1;" parent="1" vertex="1">
          <mxGeometry x="20" y="140" width="1060" height="10" as="geometry" />
        </mxCell>
        <mxCell id="677b7b8949515195-28" value="Kategorie" style="text;html=1;points=[];align=left;verticalAlign=top;spacingTop=-4;fontSize=14;fontFamily=Verdana" parent="1" vertex="1">
          <mxGeometry x="80" y="205" width="170" height="20" as="geometry" />
        </mxCell>
        <mxCell id="677b7b8949515195-29" value="Section 3" style="text;html=1;points=[];align=left;verticalAlign=top;spacingTop=-4;fontSize=14;fontFamily=Verdana" parent="1" vertex="1">
          <mxGeometry x="80" y="246" width="170" height="20" as="geometry" />
        </mxCell>
        <mxCell id="FYeRfSOLfOwgAEnzX4kM-1" value="Login" style="rounded=1;whiteSpace=wrap;html=1;" parent="1" vertex="1">
          <mxGeometry x="910" y="60" width="150" height="40" as="geometry" />
        </mxCell>
        <mxCell id="FYeRfSOLfOwgAEnzX4kM-2" value="jpg" style="ellipse;whiteSpace=wrap;html=1;aspect=fixed;" parent="1" vertex="1">
          <mxGeometry x="40" y="200" width="30" height="30" as="geometry" />
        </mxCell>
        <mxCell id="FYeRfSOLfOwgAEnzX4kM-3" value="" style="ellipse;whiteSpace=wrap;html=1;aspect=fixed;" parent="1" vertex="1">
          <mxGeometry x="40" y="241" width="30" height="30" as="geometry" />
        </mxCell>
        <mxCell id="FYeRfSOLfOwgAEnzX4kM-5" value="Section 2" style="text;html=1;points=[];align=left;verticalAlign=top;spacingTop=-4;fontSize=14;fontFamily=Verdana" parent="1" vertex="1">
          <mxGeometry x="80" y="285" width="170" height="20" as="geometry" />
        </mxCell>
        <mxCell id="FYeRfSOLfOwgAEnzX4kM-6" value="" style="ellipse;whiteSpace=wrap;html=1;aspect=fixed;" parent="1" vertex="1">
          <mxGeometry x="40" y="280" width="30" height="30" as="geometry" />
        </mxCell>
        <mxCell id="FYeRfSOLfOwgAEnzX4kM-7" value="Section 2" style="text;html=1;points=[];align=left;verticalAlign=top;spacingTop=-4;fontSize=14;fontFamily=Verdana" parent="1" vertex="1">
          <mxGeometry x="80" y="325" width="170" height="20" as="geometry" />
        </mxCell>
        <mxCell id="FYeRfSOLfOwgAEnzX4kM-8" value="" style="ellipse;whiteSpace=wrap;html=1;aspect=fixed;" parent="1" vertex="1">
          <mxGeometry x="40" y="320" width="30" height="30" as="geometry" />
        </mxCell>
        <mxCell id="FYeRfSOLfOwgAEnzX4kM-11" value="Section 2" style="text;html=1;points=[];align=left;verticalAlign=top;spacingTop=-4;fontSize=14;fontFamily=Verdana" parent="1" vertex="1">
          <mxGeometry x="80" y="365" width="170" height="20" as="geometry" />
        </mxCell>
        <mxCell id="FYeRfSOLfOwgAEnzX4kM-12" value="" style="ellipse;whiteSpace=wrap;html=1;aspect=fixed;" parent="1" vertex="1">
          <mxGeometry x="40" y="360" width="30" height="30" as="geometry" />
        </mxCell>
        <mxCell id="FYeRfSOLfOwgAEnzX4kM-13" value="Section 2" style="text;html=1;points=[];align=left;verticalAlign=top;spacingTop=-4;fontSize=14;fontFamily=Verdana" parent="1" vertex="1">
          <mxGeometry x="80" y="415" width="170" height="20" as="geometry" />
        </mxCell>
        <mxCell id="FYeRfSOLfOwgAEnzX4kM-14" value="" style="ellipse;whiteSpace=wrap;html=1;aspect=fixed;" parent="1" vertex="1">
          <mxGeometry x="40" y="410" width="30" height="30" as="geometry" />
        </mxCell>
        <mxCell id="FYeRfSOLfOwgAEnzX4kM-15" value="Section 2" style="text;html=1;points=[];align=left;verticalAlign=top;spacingTop=-4;fontSize=14;fontFamily=Verdana" parent="1" vertex="1">
          <mxGeometry x="80" y="455" width="170" height="20" as="geometry" />
        </mxCell>
        <mxCell id="FYeRfSOLfOwgAEnzX4kM-16" value="Section 3" style="text;html=1;points=[];align=left;verticalAlign=top;spacingTop=-4;fontSize=14;fontFamily=Verdana" parent="1" vertex="1">
          <mxGeometry x="80" y="496" width="170" height="20" as="geometry" />
        </mxCell>
        <mxCell id="FYeRfSOLfOwgAEnzX4kM-17" value="" style="ellipse;whiteSpace=wrap;html=1;aspect=fixed;" parent="1" vertex="1">
          <mxGeometry x="40" y="450" width="30" height="30" as="geometry" />
        </mxCell>
        <mxCell id="FYeRfSOLfOwgAEnzX4kM-18" value="" style="ellipse;whiteSpace=wrap;html=1;aspect=fixed;" parent="1" vertex="1">
          <mxGeometry x="40" y="491" width="30" height="30" as="geometry" />
        </mxCell>
        <mxCell id="FYeRfSOLfOwgAEnzX4kM-19" value="Section 2" style="text;html=1;points=[];align=left;verticalAlign=top;spacingTop=-4;fontSize=14;fontFamily=Verdana" parent="1" vertex="1">
          <mxGeometry x="80" y="535" width="170" height="20" as="geometry" />
        </mxCell>
        <mxCell id="FYeRfSOLfOwgAEnzX4kM-20" value="" style="ellipse;whiteSpace=wrap;html=1;aspect=fixed;" parent="1" vertex="1">
          <mxGeometry x="40" y="530" width="30" height="30" as="geometry" />
        </mxCell>
        <mxCell id="FYeRfSOLfOwgAEnzX4kM-21" value="Section 2" style="text;html=1;points=[];align=left;verticalAlign=top;spacingTop=-4;fontSize=14;fontFamily=Verdana" parent="1" vertex="1">
          <mxGeometry x="80" y="575" width="170" height="20" as="geometry" />
        </mxCell>
        <mxCell id="FYeRfSOLfOwgAEnzX4kM-22" value="Section 3" style="text;html=1;points=[];align=left;verticalAlign=top;spacingTop=-4;fontSize=14;fontFamily=Verdana" parent="1" vertex="1">
          <mxGeometry x="80" y="616" width="170" height="20" as="geometry" />
        </mxCell>
        <mxCell id="FYeRfSOLfOwgAEnzX4kM-23" value="" style="ellipse;whiteSpace=wrap;html=1;aspect=fixed;" parent="1" vertex="1">
          <mxGeometry x="40" y="570" width="30" height="30" as="geometry" />
        </mxCell>
        <mxCell id="FYeRfSOLfOwgAEnzX4kM-24" value="" style="ellipse;whiteSpace=wrap;html=1;aspect=fixed;" parent="1" vertex="1">
          <mxGeometry x="40" y="611" width="30" height="30" as="geometry" />
        </mxCell>
        <mxCell id="FYeRfSOLfOwgAEnzX4kM-25" value="Section 2" style="text;html=1;points=[];align=left;verticalAlign=top;spacingTop=-4;fontSize=14;fontFamily=Verdana" parent="1" vertex="1">
          <mxGeometry x="80" y="655" width="170" height="20" as="geometry" />
        </mxCell>
        <mxCell id="FYeRfSOLfOwgAEnzX4kM-26" value="" style="ellipse;whiteSpace=wrap;html=1;aspect=fixed;" parent="1" vertex="1">
          <mxGeometry x="40" y="650" width="30" height="30" as="geometry" />
        </mxCell>
        <mxCell id="FYeRfSOLfOwgAEnzX4kM-35" value="Obrázky" style="shape=process;whiteSpace=wrap;html=1;backgroundOutline=1;" parent="1" vertex="1">
          <mxGeometry x="250" y="170" width="780" height="410" as="geometry" />
        </mxCell>
        <mxCell id="FYeRfSOLfOwgAEnzX4kM-36" value="" style="triangle;whiteSpace=wrap;html=1;" parent="1" vertex="1">
          <mxGeometry x="955" y="335" width="60" height="80" as="geometry" />
        </mxCell>
        <mxCell id="FYeRfSOLfOwgAEnzX4kM-37" value="" style="triangle;whiteSpace=wrap;html=1;rotation=-180;" parent="1" vertex="1">
          <mxGeometry x="260" y="335" width="60" height="80" as="geometry" />
        </mxCell>
        <mxCell id="FYeRfSOLfOwgAEnzX4kM-40" value="&lt;font style=&quot;font-size: 32px;&quot;&gt;Text&lt;/font&gt;" style="text;html=1;strokeColor=none;fillColor=none;align=center;verticalAlign=middle;whiteSpace=wrap;rounded=0;strokeWidth=1;fontSize=48;" parent="1" vertex="1">
          <mxGeometry x="270" y="606" width="60" height="30" as="geometry" />
        </mxCell>
        <mxCell id="FYeRfSOLfOwgAEnzX4kM-41" value="" style="rounded=0;whiteSpace=wrap;html=1;" parent="1" vertex="1">
          <mxGeometry x="240" y="650" width="270" height="310" as="geometry" />
        </mxCell>
        <mxCell id="FYeRfSOLfOwgAEnzX4kM-42" value="Obrázek" style="shape=process;whiteSpace=wrap;html=1;backgroundOutline=1;" parent="1" vertex="1">
          <mxGeometry x="260" y="660" width="230" height="130" as="geometry" />
        </mxCell>
        <mxCell id="FYeRfSOLfOwgAEnzX4kM-44" value="&lt;span style=&quot;font-size: 18px;&quot;&gt;&lt;b&gt;Název&lt;/b&gt;&lt;/span&gt;" style="text;html=1;strokeColor=none;fillColor=none;align=center;verticalAlign=middle;whiteSpace=wrap;rounded=0;" parent="1" vertex="1">
          <mxGeometry x="345" y="800" width="60" height="30" as="geometry" />
        </mxCell>
        <mxCell id="FYeRfSOLfOwgAEnzX4kM-45" value="&lt;b&gt;&lt;font style=&quot;font-size: 28px;&quot;&gt;999,-&lt;/font&gt;&lt;/b&gt;" style="rounded=1;whiteSpace=wrap;html=1;" parent="1" vertex="1">
          <mxGeometry x="285" y="880" width="180" height="60" as="geometry" />
        </mxCell>
        <mxCell id="FYeRfSOLfOwgAEnzX4kM-47" value="&lt;b style=&quot;font-size: 20px;&quot;&gt;4.5&lt;br&gt;****&lt;/b&gt;" style="text;html=1;strokeColor=none;fillColor=none;align=center;verticalAlign=middle;whiteSpace=wrap;rounded=0;" parent="1" vertex="1">
          <mxGeometry x="312.5" y="830" width="125" height="30" as="geometry" />
        </mxCell>
        <mxCell id="FYeRfSOLfOwgAEnzX4kM-60" value="" style="rounded=0;whiteSpace=wrap;html=1;" parent="1" vertex="1">
          <mxGeometry x="520" y="650" width="270" height="310" as="geometry" />
        </mxCell>
        <mxCell id="FYeRfSOLfOwgAEnzX4kM-61" value="Obrázek" style="shape=process;whiteSpace=wrap;html=1;backgroundOutline=1;" parent="1" vertex="1">
          <mxGeometry x="540" y="660" width="230" height="130" as="geometry" />
        </mxCell>
        <mxCell id="FYeRfSOLfOwgAEnzX4kM-62" value="&lt;span style=&quot;font-size: 18px;&quot;&gt;&lt;b&gt;Název&lt;/b&gt;&lt;/span&gt;" style="text;html=1;strokeColor=none;fillColor=none;align=center;verticalAlign=middle;whiteSpace=wrap;rounded=0;" parent="1" vertex="1">
          <mxGeometry x="625" y="800" width="60" height="30" as="geometry" />
        </mxCell>
        <mxCell id="FYeRfSOLfOwgAEnzX4kM-63" value="&lt;b&gt;&lt;font style=&quot;font-size: 28px;&quot;&gt;999,-&lt;/font&gt;&lt;/b&gt;" style="rounded=1;whiteSpace=wrap;html=1;" parent="1" vertex="1">
          <mxGeometry x="565" y="880" width="180" height="60" as="geometry" />
        </mxCell>
        <mxCell id="FYeRfSOLfOwgAEnzX4kM-64" value="&lt;b style=&quot;font-size: 20px;&quot;&gt;4.5&lt;br&gt;****&lt;/b&gt;" style="text;html=1;strokeColor=none;fillColor=none;align=center;verticalAlign=middle;whiteSpace=wrap;rounded=0;" parent="1" vertex="1">
          <mxGeometry x="592.5" y="830" width="125" height="30" as="geometry" />
        </mxCell>
        <mxCell id="FYeRfSOLfOwgAEnzX4kM-65" value="" style="rounded=0;whiteSpace=wrap;html=1;" parent="1" vertex="1">
          <mxGeometry x="800" y="650" width="270" height="310" as="geometry" />
        </mxCell>
        <mxCell id="FYeRfSOLfOwgAEnzX4kM-66" value="Obrázek" style="shape=process;whiteSpace=wrap;html=1;backgroundOutline=1;" parent="1" vertex="1">
          <mxGeometry x="820" y="660" width="230" height="130" as="geometry" />
        </mxCell>
        <mxCell id="FYeRfSOLfOwgAEnzX4kM-67" value="&lt;span style=&quot;font-size: 18px;&quot;&gt;&lt;b&gt;Název&lt;/b&gt;&lt;/span&gt;" style="text;html=1;strokeColor=none;fillColor=none;align=center;verticalAlign=middle;whiteSpace=wrap;rounded=0;" parent="1" vertex="1">
          <mxGeometry x="905" y="800" width="60" height="30" as="geometry" />
        </mxCell>
        <mxCell id="FYeRfSOLfOwgAEnzX4kM-68" value="&lt;b&gt;&lt;font style=&quot;font-size: 28px;&quot;&gt;999,-&lt;/font&gt;&lt;/b&gt;" style="rounded=1;whiteSpace=wrap;html=1;" parent="1" vertex="1">
          <mxGeometry x="845" y="880" width="180" height="60" as="geometry" />
        </mxCell>
        <mxCell id="FYeRfSOLfOwgAEnzX4kM-69" value="&lt;b style=&quot;font-size: 20px;&quot;&gt;4.5&lt;br&gt;****&lt;/b&gt;" style="text;html=1;strokeColor=none;fillColor=none;align=center;verticalAlign=middle;whiteSpace=wrap;rounded=0;" parent="1" vertex="1">
          <mxGeometry x="872.5" y="830" width="125" height="30" as="geometry" />
        </mxCell>
        <mxCell id="FYeRfSOLfOwgAEnzX4kM-72" value="" style="rounded=0;whiteSpace=wrap;html=1;rotation=-90;" parent="1" vertex="1">
          <mxGeometry x="990" y="750" width="120" height="60" as="geometry" />
        </mxCell>
        <mxCell id="FYeRfSOLfOwgAEnzX4kM-74" value="" style="triangle;whiteSpace=wrap;html=1;" parent="1" vertex="1">
          <mxGeometry x="1037.5" y="750" width="40" height="60" as="geometry" />
        </mxCell>
        <mxCell id="FYeRfSOLfOwgAEnzX4kM-84" value="" style="line;strokeWidth=1;html=1;rounded=0;shadow=0;labelBackgroundColor=none;fillColor=none;fontFamily=Verdana;fontSize=14;fontColor=#000000;align=center;comic=1;" parent="1" vertex="1">
          <mxGeometry x="30" y="1020" width="1060" height="10" as="geometry" />
        </mxCell>
        <mxCell id="FYeRfSOLfOwgAEnzX4kM-96" value="Link" style="text;html=1;strokeColor=none;fillColor=none;align=center;verticalAlign=middle;whiteSpace=wrap;rounded=0;" parent="1" vertex="1">
          <mxGeometry x="717.5" y="1080" width="60" height="30" as="geometry" />
        </mxCell>
        <mxCell id="FYeRfSOLfOwgAEnzX4kM-97" value="Link" style="text;html=1;strokeColor=none;fillColor=none;align=center;verticalAlign=middle;whiteSpace=wrap;rounded=0;" parent="1" vertex="1">
          <mxGeometry x="777.5" y="1080" width="60" height="30" as="geometry" />
        </mxCell>
        <mxCell id="FYeRfSOLfOwgAEnzX4kM-98" value="&lt;span style=&quot;font-size: 14px;&quot;&gt;&lt;b&gt;neco@neco&lt;/b&gt;&lt;/span&gt;" style="text;html=1;strokeColor=none;fillColor=none;align=center;verticalAlign=middle;whiteSpace=wrap;rounded=0;" parent="1" vertex="1">
          <mxGeometry x="135" y="1070" width="60" height="30" as="geometry" />
        </mxCell>
        <mxCell id="FYeRfSOLfOwgAEnzX4kM-101" value="Logo" style="ellipse;whiteSpace=wrap;html=1;" parent="1" vertex="1">
          <mxGeometry x="65" y="40" width="120" height="80" as="geometry" />
        </mxCell>
        <mxCell id="GSMv8RRXGYziT_qQhZNP-1" value="Link" style="text;html=1;strokeColor=none;fillColor=none;align=center;verticalAlign=middle;whiteSpace=wrap;rounded=0;" vertex="1" parent="1">
          <mxGeometry x="830" y="1080" width="60" height="30" as="geometry" />
        </mxCell>
        <mxCell id="GSMv8RRXGYziT_qQhZNP-2" value="Link" style="text;html=1;strokeColor=none;fillColor=none;align=center;verticalAlign=middle;whiteSpace=wrap;rounded=0;" vertex="1" parent="1">
          <mxGeometry x="890" y="1080" width="60" height="30" as="geometry" />
        </mxCell>
        <mxCell id="GSMv8RRXGYziT_qQhZNP-3" value="Logo" style="rounded=1;whiteSpace=wrap;html=1;" vertex="1" parent="1">
          <mxGeometry x="520" y="1055" width="50" height="60" as="geometry" />
        </mxCell>
      </root>
    </mxGraphModel>
  </diagram>
</mxfile>
